<svg xmlns="http://www.w3.org/2000/svg" version="1.1" xmlns:xlink="http://www.w3.org/1999/xlink" xmlns:svgjs="http://svgjs.com/svgjs" width="1440" height="560" preserveAspectRatio="none" viewBox="0 0 1440 560"><g mask="url(&quot;#SvgjsMask1038&quot;)" fill="none"><rect width="1440" height="560" x="0" y="0" fill="url(#SvgjsLinearGradient1039)"></rect><path d="M1440 0L872.26 0L1440 237.94z" fill="rgba(255, 255, 255, .1)"></path><path d="M872.26 0L1440 237.94L1440 360.39L793.12 0z" fill="rgba(255, 255, 255, .075)"></path><path d="M793.12 0L1440 360.39L1440 388.81L631.09 0z" fill="rgba(255, 255, 255, .05)"></path><path d="M631.09 0L1440 388.81L1440 505.22L310.21000000000004 0z" fill="rgba(255, 255, 255, .025)"></path><path d="M0 560L315.34 560L0 492.01z" fill="rgba(0, 0, 0, .1)"></path><path d="M0 492.01L315.34 560L759.06 560L0 292.25z" fill="rgba(0, 0, 0, .075)"></path><path d="M0 292.25L759.06 560L995.65 560L0 252.52z" fill="rgba(0, 0, 0, .05)"></path><path d="M0 252.51999999999998L995.65 560L1057.86 560L0 81.45999999999998z" fill="rgba(0, 0, 0, .025)"></path></g><defs><mask id="SvgjsMask1038"><rect width="1440" height="560" fill="#ffffff"></rect></mask><linearGradient x1="15.28%" y1="-39.29%" x2="84.72%" y2="139.29%" gradientUnits="userSpaceOnUse" id="SvgjsLinearGradient1039"><stop stop-color="#0e2a47" offset="0"></stop><stop stop-color="rgba(0, 12, 158, 1)" offset="1"></stop></linearGradient></defs></svg>